<svg width="24" height="24" viewBox="0 0 24 24" fill="none" xmlns="http://www.w3.org/2000/svg">
<path fill-rule="evenodd" clip-rule="evenodd" d="M21.1066 15.48C20.6623 15.1 20.4065 14.5446 20.4066 13.96V9.14C20.4066 5.19 16.8266 2 12.4066 2C7.98657 2 4.40657 5.19 4.40657 9.14V13.96C4.40661 14.5446 4.15084 15.1 3.70657 15.48C2.19657 16.83 3.26657 19.13 5.40657 19.13H9.20657C9.69141 20.4804 10.9718 21.3811 12.4066 21.3811C13.8414 21.3811 15.1217 20.4804 15.6066 19.13H19.4066C21.5466 19.13 22.6166 16.83 21.1066 15.48ZM12.4066 19.8809C11.8114 19.8786 11.2505 19.6019 10.8866 19.1309H13.8866C13.5342 19.5944 12.9888 19.8708 12.4066 19.8809ZM19.4162 17.63C19.7798 17.6629 20.1259 17.468 20.2862 17.14C20.364 16.9424 20.2932 16.7173 20.1162 16.6C19.3628 15.9279 18.9272 14.9696 18.9162 13.96V9.14C18.9162 6.03 15.9962 3.5 12.4162 3.5C8.8362 3.5 5.9162 6.03 5.9162 9.14V13.96C5.90524 14.9696 5.46964 15.9279 4.7162 16.6C4.53552 16.7144 4.46028 16.9401 4.5362 17.14C4.6965 17.468 5.04264 17.6629 5.4062 17.63H19.4162Z" fill="black"/>
</svg>
